# xmcd CD database file
#
# Track frame offsets:
#	150
#	2122
#	20870
#	45000
#	66330
#	86722
#	106072
#	127342
#	146077
#	168397
#	187835
#	211855
#	235415
#	258742
#	277240
#	289480
#	298612
#	323105
#
# Disc length: 4369 seconds
#
# Revision: 0
# Processed by: cddbd v1.5.2PL0 Copyright (c) Steve Scherf et al.
# Submitted via: CDex 1.51
#
DISCID=1b110f12
DTITLE=Various Artist - La Columna
DYEAR=2001
DGENRE=Blues
TTITLE0=La Columna
TTITLE1=Dire Straits - Walk of Life
TTITLE2=Bee Gees - Spirits (Having flown)
TTITLE3=Kool and The Gang - Get Down on It
TTITLE4=Donna Sumer - She Works Hard for The Money
TTITLE5=Sau - Boig per Tu
TTITLE6=Status Quo - In the Army Now
TTITLE7=Dexys Midnight Runners - Come on Eileen
TTITLE8=Sam Brown - Stop
TTITLE9=The Boomtown Rats - I Don't Like Mondays
TTITLE10=Stephanie Mills - Never Knew Love Like This Before
TTITLE11=Rod Stewart - Maggy May
TTITLE12=Hèctor Vila - Mediterrània Enllà
TTITLE13=Tears for Fear - Everybody Wants to Rule The World
TTITLE14=The Temptations - My Girl
TTITLE15=Tom Jones - It's not Unusual
TTITLE16=Dianna Ross - I'm Coming Out
TTITLE17=La Columna
EXTD=YEAR: 2001
EXTT0=
EXTT1=
EXTT2=
EXTT3=
EXTT4=
EXTT5=
EXTT6=
EXTT7=
EXTT8=
EXTT9=
EXTT10=
EXTT11=
EXTT12=
EXTT13=
EXTT14=
EXTT15=
EXTT16=
EXTT17=
PLAYORDER=
